<?xml version="1.0" encoding="UTF-8"?>
<svg width="24" height="24" viewBox="0 0 24 24" fill="none" xmlns="http://www.w3.org/2000/svg">
  <path d="M12 2C10.9 2 10 2.9 10 4C10 5.1 10.9 6 12 6C13.1 6 14 5.1 14 4C14 2.9 13.1 2 12 2Z" fill="#666666"/>
  <path d="M15 8H9C7.9 8 7 8.9 7 10V18C7 19.1 7.9 20 9 20H15C16.1 20 17 19.1 17 18V10C17 8.9 16.1 8 15 8ZM15 18H9V10H15V18Z" fill="#666666"/>
  <path d="M12 11C10.9 11 10 11.9 10 13V17C10 18.1 10.9 19 12 19C13.1 19 14 18.1 14 17V13C14 11.9 13.1 11 12 11Z" fill="#666666"/>
</svg> 